<svg width="40" height="40" viewBox="0 0 40 40" fill="none" xmlns="http://www.w3.org/2000/svg">
<rect width="40" height="40" rx="8" fill="#7ACF46"/>
<path fill-rule="evenodd" clip-rule="evenodd" d="M17.9268 11H18H22H22.0732H22.0732H22.0732C23.8966 11 25.3664 11 26.5223 11.1554C27.7225 11.3167 28.733 11.6619 29.5355 12.4645C30.3381 13.267 30.6833 14.2775 30.8446 15.4777C31.0001 16.6336 31 18.1034 31 19.9269V20V20.0731C31 21.8966 31.0001 23.3664 30.8446 24.5223C30.6833 25.7225 30.3381 26.733 29.5355 27.5355C28.733 28.3381 27.7225 28.6833 26.5223 28.8446C25.3664 29.0001 23.8966 29 22.0731 29H22H18H17.9269C16.1034 29 14.6336 29.0001 13.4777 28.8446C12.2775 28.6833 11.267 28.3381 10.4645 27.5355C9.66191 26.733 9.31672 25.7225 9.15537 24.5223C8.99995 23.3664 8.99997 21.8966 9 20.0732V20.0732V20.0732V20V19.9268V19.9268V19.9268C8.99997 18.1034 8.99995 16.6336 9.15537 15.4777C9.31672 14.2775 9.66191 13.267 10.4645 12.4645C11.267 11.6619 12.2775 11.3167 13.4777 11.1554C14.6336 11 16.1034 11 17.9268 11H17.9268H17.9268ZM16.283 21.1311L17.3968 22.0858C18.8947 23.3698 21.1052 23.3698 22.6031 22.0858L23.7169 21.1311L26.2928 23.7071L27.7071 22.2929L25.2399 19.8257L27.6507 17.7593L26.3492 16.2407L21.3015 20.5673C20.5526 21.2093 19.4474 21.2093 18.6984 20.5673L13.6507 16.2407L12.3492 17.7593L14.76 19.8257L12.2928 22.2929L13.7071 23.7071L16.283 21.1311Z" fill="white"/>
</svg>
