<svg width="40" height="40" viewBox="0 0 40 40" fill="none" xmlns="http://www.w3.org/2000/svg">
<rect width="40" height="40" rx="8" fill="#7ACF46"/>
<path d="M15.7741 13.8306C15.7741 12.2205 17.0793 10.9153 18.6894 10.9153C20.2994 10.9153 21.6047 12.2205 21.6047 13.8306V15.7741H22.642C22.9594 15.7741 23.2639 15.774 23.5482 15.7832V13.8306C23.5482 11.1472 21.3728 8.9718 18.6894 8.9718C16.0059 8.9718 13.8306 11.1472 13.8306 13.8306V15.7832C14.1148 15.774 14.4193 15.7741 14.7367 15.7741H15.7741V13.8306Z" fill="white"/>
<path d="M13.0553 16.8182C13.5267 16.7457 14.1062 16.7458 14.7367 16.7459H22.642C23.2725 16.7458 23.852 16.7457 24.3235 16.8182C24.8539 16.8997 25.3799 17.09 25.7961 17.5657C26.196 18.0227 26.34 18.5682 26.4035 19.108C26.4636 19.6188 26.4635 20.2561 26.4635 20.9935V21.6247C26.3033 21.6114 26.1412 21.6047 25.9776 21.6047C22.7575 21.6047 20.147 24.2151 20.147 27.4353C20.147 28.4973 20.431 29.493 20.9271 30.3506L14.7367 30.3506C14.1062 30.3507 13.5267 30.3508 13.0553 30.2783C12.5249 30.1968 11.9989 30.0065 11.5827 29.5308C11.1828 29.0738 11.0388 28.5283 10.9753 27.9885C10.9152 27.4777 10.9152 26.8404 10.9153 26.103V20.9935C10.9152 20.256 10.9152 19.6188 10.9753 19.108C11.0388 18.5682 11.1828 18.0227 11.5827 17.5657C11.9989 17.09 12.5249 16.8997 13.0553 16.8182Z" fill="white"/>
<path fill-rule="evenodd" clip-rule="evenodd" d="M23.6277 24.7336C23.8972 24.5029 24.2093 24.3206 24.5505 24.2V23.5482H26.494V24.2C26.8352 24.3206 27.1472 24.5029 27.4166 24.7334L27.9815 24.4072L28.9533 26.0904L28.3889 26.4163C28.4208 26.5891 28.4375 26.7673 28.4375 26.9494C28.4375 27.1315 28.4208 27.3096 28.3889 27.4825L28.9535 27.8084L27.9817 29.4916L27.4167 29.1653C27.1472 29.3959 26.8352 29.5782 26.494 29.6988V30.3506H24.5505V29.6988C24.2092 29.5782 23.8971 29.3958 23.6276 29.1652L23.0623 29.4916L22.0905 27.8084L22.6555 27.4822C22.6236 27.3095 22.607 27.1314 22.607 26.9494C22.607 26.7674 22.6236 26.5893 22.6556 26.4165L22.0907 26.0904L23.0625 24.4072L23.6277 24.7336ZM24.5505 26.9494C24.5505 26.4127 24.9856 25.9776 25.5222 25.9776C26.0589 25.9776 26.494 26.4127 26.494 26.9494C26.494 27.4861 26.0589 27.9212 25.5222 27.9212C24.9856 27.9212 24.5505 27.4861 24.5505 26.9494Z" fill="white"/>
</svg>
